<?xml version="1.0" encoding="iso-8859-1"?>
<!-- Generator: Adobe Illustrator 19.0.0, SVG Export Plug-In . SVG Version: 6.00 Build 0)  -->
<svg version="1.1" id="Layer_1" xmlns="http://www.w3.org/2000/svg" xmlns:xlink="http://www.w3.org/1999/xlink" x="0px" y="0px"
	 viewBox="0 0 512 512" style="enable-background:new 0 0 512 512;" xml:space="preserve">
<polygon style="fill:#434A54;" points="287.344,420 234.664,399.672 202.664,364.328 163.664,383.672 128.992,376.656 
	107.664,385.328 49.328,413.672 14.328,433.844 15.992,483.328 306,483.328 307.344,438 "/>
<rect x="138.25" y="383.75" style="fill:#ED5564;" width="46.5" height="26.5"/>
<polygon style="fill:#DA4453;" points="176.5,417.5 142.5,420.5 125,483 192.5,482.5 "/>
<polygon style="fill:#F5F7FA;" points="497.656,479.672 495,437.672 438.656,417.344 412.344,386.672 375.656,398.344 343,392.344 
	328,410.016 306,421.016 308.656,447.016 308.656,481.016 "/>
<polygon style="fill:#E6E9ED;" points="473,275 440,223 379.812,201 307.5,238 272,352 277.328,387 325.5,401.5 432.5,401.5 
	484,387 491.5,365 "/>
<polygon style="fill:#EAC6BB;" points="382.406,284 325,301.75 313.5,321.844 336.5,365 377,401.5 435,358 446.125,301.75 "/>
<path style="fill:#FECD57;" d="M439.344,282.672l-24-26.672l-42.688-6l-41.406,12.672l-12.594,46l46-24.672l30,6.672
	c0,0,36.688,11.328,47.344,11.078S439.344,282.672,439.344,282.672z"/>
<polygon style="fill:#965353;" points="224.922,197.719 186.891,168.344 121.781,168.344 82.031,205.516 65.891,246.422 
	106.227,256.5 172.492,237.5 195.539,229.422 242.211,242.672 "/>
<polygon style="fill:#EAC6BB;" points="197.375,226.844 143.531,253.75 85.008,261.953 82.078,297.656 130.656,371.984 
	182.156,376.656 223.125,337.453 236,253.75 "/>
<polygon style="fill:#ED5564;" points="327.719,50.016 311.844,37.359 296.438,36.172 277.031,45.422 273.203,42.781 
	259.094,36.172 245.891,36.906 228.539,47.047 223.398,63.219 224.875,78.797 241.32,103.031 256.906,120.078 278.375,134.328 
	289.812,124.906 317.594,100.391 331.25,68.641 "/>
<path d="M277.344,149.109c0,0,69.656-40.641,69.656-87.078c0-22.438-18.188-40.625-40.641-40.625
	c-11.375,0-21.641,4.656-29.016,12.188c-7.391-7.531-17.656-12.188-29.031-12.188c-22.445,0-40.641,18.188-40.641,40.625
	C207.672,108.469,277.344,149.109,277.344,149.109z M248.312,42.719c5.219,0,10.125,2.062,13.781,5.812l15.25,15.547l15.219-15.547
	c3.672-3.75,8.562-5.812,13.797-5.812c10.641,0,19.297,8.672,19.297,19.312c0,12.531-9.719,28.422-27.375,44.75
	c-7.484,6.906-15.062,12.688-20.938,16.828c-5.891-4.141-13.469-9.922-20.953-16.828C238.727,90.453,229,74.562,229,62.031
	C229,51.391,237.664,42.719,248.312,42.719z"/>
<path d="M490.312,422.312l-0.844-0.281c-14.375-3.875-24.906-7.594-31.25-10.031c-2.219-0.875-4.281-1.688-6.188-2.5
	c6.281-1.375,12.094-3,17.391-4.812c16.938-5.844,23.125-12.125,24.609-13.906l2.125-2.531l0.312-3.281
	c0.422-4.312,9.688-106.344-39.438-160.469c-19.625-21.625-45.672-32.578-77.406-32.578c-31.719,0-57.719,10.953-77.219,32.578
	c-48.922,54.156-39.125,156.344-38.688,160.688l0.344,3.25l2.094,2.5c2.234,2.688,11.969,12.125,41.781,18.625
	c-1.766,0.719-3.672,1.5-5.719,2.281c-2.609-1.656-5.469-3.031-8.5-4.062l-1.031-0.312c-17.438-4.719-30.219-9.219-37.906-12.188
	c-27.25-10.469-34.359-18.031-36.164-21.625c-0.062-0.125-0.109-0.25-0.172-0.406l-0.109-14.438
	c18.32-21.5,32.32-50.344,32.32-79.781c0,0,17.094-63.781-32.234-108.438c-9.047-8.188-30.578-17.484-57.227-17.484
	c-18.797,0-40.125,4.609-61.445,17.484c-26.109,15.75-45.117,85.344-45.117,85.344s5.734,3.219,15.844,6.375
	c-0.75,5.375-1.156,10.938-1.156,16.719c0,29.438,14.008,58.281,32.328,79.781l-0.094,14.438c-0.062,0.156-0.117,0.281-0.18,0.406
	c-1.812,3.594-8.906,11.156-36.164,21.656c-7.688,2.938-20.477,7.438-37.742,12.125l-1.188,0.344C10.57,413.031,0,427.781,0,444.406
	v46.188h117.336h85.336h45.391H320h192V452.5C512,438.781,503.281,426.625,490.312,422.312z M348.203,368.156
	c-13.734-16.125-21.609-35.094-21.609-52.062c0-1.406,0.031-2.781,0.109-4.156c19.359-2.844,34.922-10.031,47.047-18.312
	c10.031,4.906,31.031,13.438,59.438,15.562c0.188,2.25,0.297,4.562,0.297,6.906c0,16.969-7.891,35.938-21.609,52.062
	c-12.906,15.125-26.391,21.938-31.844,21.938C374.594,390.094,361.109,383.281,348.203,368.156z M391.938,278.281
	c5.891-6.094,10.062-11.719,12.656-15.594c4.781,2.469,9.156,5.719,12.938,9.656c4.141,4.312,7.5,9.312,10.062,14.844
	C412.625,285.344,400.438,281.594,391.938,278.281z M331.562,289.312c2.656-6.406,6.312-12.125,10.969-16.969
	c9.641-10.031,22.969-15.562,37.5-15.562c0.812,0,1.594,0.031,2.391,0.062C374.094,267.188,357.594,283.094,331.562,289.312z
	 M284.625,378.656c-1.25-19.375-3.812-98.438,33.609-139.875c15.516-17.188,35.594-25.531,61.391-25.531
	c25.812,0,45.953,8.375,61.562,25.562c37.547,41.281,35.484,120.312,34.359,139.719c-2.672,1.719-7.781,4.406-16.484,7.094
	c-9.375,2.906-20,4.906-30.828,6.25l-0.078-9.969c15.109-17.75,26.656-41.531,26.656-65.812c0-48.562-33.469-80.625-74.781-80.625
	c-41.297,0-74.781,32.062-74.781,80.625c0,24.281,11.562,48.094,26.656,65.812l-0.062,10c-10.797-1.344-21.406-3.344-30.75-6.188
	C292.375,383.031,287.281,380.375,284.625,378.656z M142.82,391.281h34.344l-5.266,14h-23.805L142.82,391.281z M87.117,227.312
	c12.703-30.688,21.93-37.406,23.656-38.453c15.844-9.562,32.805-14.422,50.422-14.422c22.438,0,38.594,8.062,42.906,11.969
	c14.633,13.25,23.641,30.031,26.82,49.969c-1.352-1.75-2.859-3.469-4.602-5.062c-6.539-6.094-14.539-9.188-23.773-9.188
	c-9.898,0-21.422,3.531-39.766,12.156c-17.586,8.281-35.578,12.469-53.484,12.469c-11.227,0-20.836-1.656-28.211-3.594
	C82.773,238.344,84.805,232.906,87.117,227.312z M91.383,266.906c5.484,0.719,11.477,1.188,17.914,1.188
	c17.938,0,39.305-3.562,62.562-14.5c15.188-7.156,24.43-10.125,30.688-10.125c10.094,0,12.43,7.75,19.43,18.25
	c1.578,2.344,4.008,4.562,6.789,6.562c0.375,3.5,0.562,7.094,0.562,10.75c0,21.625-9.945,45.688-27.289,66.031
	c-11.156,13.094-22.117,20.906-30.5,24.875h-23.094c-8.383-3.969-19.344-11.781-30.492-24.875
	c-17.344-20.344-27.297-44.406-27.297-66.031C90.656,274.875,90.906,270.844,91.383,266.906z M21.336,469.281v-24.875
	c0-7.344,4.562-13.844,11.398-16.281l0.523-0.156c18.078-4.906,31.508-9.656,39.617-12.75c24.234-9.344,38.523-18.25,45.461-28.438
	l12.32,32.719l-9.32,49.781H21.336z M143.039,469.281l7.992-42.688h17.93l8,42.688H143.039z M198.672,469.281l-9.336-49.781
	l12.312-32.719c6.938,10.188,21.234,19.094,45.453,28.406c8.055,3.094,21.461,7.844,39.711,12.812l0.375,0.094
	c6.875,2.406,11.469,8.938,11.469,16.312v24.875L198.672,469.281L198.672,469.281z M490.656,469.281H320v-24.875
	c0-5.438-1.141-10.688-3.219-15.438c18.594-7.906,29.188-15.812,33.938-25.156v-0.031l0.031-0.031
	c0.281-0.562,0.469-1.031,0.625-1.375l0.797-1.781c9.734,6.844,19.562,10.812,27.859,10.812c8.312,0,18.125-3.969,27.875-10.812
	l0.781,1.75c0.125,0.312,0.312,0.719,0.562,1.219l0.031,0.094l0.062,0.125c5.328,10.531,18.031,19.188,41.188,28.094
	c6.719,2.594,17.906,6.562,33.062,10.688l0.188,0.062c4.125,1.469,6.875,5.406,6.875,9.875L490.656,469.281L490.656,469.281z"/>
<g>
</g>
<g>
</g>
<g>
</g>
<g>
</g>
<g>
</g>
<g>
</g>
<g>
</g>
<g>
</g>
<g>
</g>
<g>
</g>
<g>
</g>
<g>
</g>
<g>
</g>
<g>
</g>
<g>
</g>
</svg>
